<svg width="176" height="42" viewBox="0 0 176 42" fill="none" xmlns="http://www.w3.org/2000/svg">
<g opacity="0.5">
<path d="M13.8667 37L6.48499e-05 9.26667H27.7334L13.8667 37Z" fill="#FFC600"/>
<path d="M13.8667 37L6.48499e-05 9.26667H27.7334L13.8667 37Z" fill="#FFC600"/>
</g>
<g opacity="0.5">
<path d="M13.8668 25.2667L3.20011 5H24.5334L13.8668 25.2667Z" fill="#FFC600"/>
<path d="M13.8668 25.2667L3.20011 5H24.5334L13.8668 25.2667Z" fill="#FFC600"/>
</g>
<path d="M13.8666 25.2667L5.33323 9.26666H22.3999L13.8666 25.2667Z" fill="#FFC600"/>
<path d="M13.8666 25.2667L5.33323 9.26666H22.3999L13.8666 25.2667Z" fill="#FFC600"/>
<path d="M48.9304 10.311V29.5H45.32V10.311H48.9304ZM58.1251 29.7499C57.0757 29.7499 56.1346 29.5833 55.3018 29.2501C54.4689 28.9087 53.761 28.4381 53.178 27.8385C52.6033 27.2388 52.1619 26.5434 51.8537 25.7521C51.5456 24.9526 51.3915 24.1031 51.3915 23.2036V22.7039C51.3915 21.6795 51.5373 20.7425 51.8288 19.893C52.1203 19.0435 52.5367 18.3064 53.078 17.6818C53.6277 17.0571 54.294 16.5782 55.0769 16.2451C55.8598 15.9036 56.7426 15.7329 57.7254 15.7329C58.6832 15.7329 59.5327 15.8911 60.2739 16.2076C61.0152 16.5241 61.6356 16.9739 62.1353 17.5569C62.6434 18.1398 63.0265 18.8394 63.2847 19.6556C63.5429 20.4635 63.672 21.363 63.672 22.3541V23.8532H52.9281V21.4546H60.1365V21.1798C60.1365 20.6801 60.0449 20.2345 59.8616 19.843C59.6867 19.4433 59.4202 19.1268 59.0621 18.8936C58.704 18.6604 58.2459 18.5438 57.6879 18.5438C57.2132 18.5438 56.8051 18.6479 56.4636 18.8561C56.1221 19.0643 55.8431 19.3558 55.6266 19.7306C55.4184 20.1054 55.2601 20.5468 55.1518 21.0548C55.0519 21.5546 55.0019 22.1042 55.0019 22.7039V23.2036C55.0019 23.745 55.0769 24.2447 55.2268 24.7028C55.385 25.1608 55.6058 25.5564 55.8889 25.8896C56.1804 26.2227 56.5302 26.4809 56.9383 26.6641C57.3548 26.8474 57.8253 26.939 58.35 26.939C58.9996 26.939 59.6035 26.814 60.1615 26.5642C60.7278 26.306 61.215 25.9187 61.6231 25.4024L63.3721 27.3013C63.089 27.7094 62.7017 28.1008 62.2103 28.4756C61.7272 28.8504 61.1442 29.1585 60.4613 29.4001C59.7784 29.6333 58.9996 29.7499 58.1251 29.7499ZM70.1433 26.8765L73.1415 15.9828H76.9019L72.342 29.5H70.0683L70.1433 26.8765ZM68.0819 15.9828L71.0927 26.889L71.1552 29.5H68.869L64.3091 15.9828H68.0819ZM83.1108 26.8765L86.1091 15.9828H89.8694L85.3096 29.5H83.0359L83.1108 26.8765ZM81.0495 15.9828L84.0603 26.889L84.1227 29.5H81.8365L77.2767 15.9828H81.0495ZM98.5769 26.4517V20.4302C98.5769 19.9971 98.5062 19.6265 98.3646 19.3183C98.223 19.0019 98.0023 18.7562 97.7024 18.5813C97.4109 18.4064 97.032 18.3189 96.5656 18.3189C96.1658 18.3189 95.8202 18.3897 95.5287 18.5313C95.2372 18.6645 95.0123 18.8603 94.8541 19.1185C94.6958 19.3683 94.6167 19.664 94.6167 20.0054H91.0188C91.0188 19.4308 91.152 18.8853 91.4185 18.3689C91.6851 17.8525 92.0723 17.3986 92.5804 17.0072C93.0884 16.6074 93.6922 16.2951 94.3918 16.0702C95.0998 15.8453 95.891 15.7329 96.7655 15.7329C97.8149 15.7329 98.7477 15.9078 99.5639 16.2576C100.38 16.6074 101.021 17.1321 101.488 17.8317C101.963 18.5313 102.2 19.4058 102.2 20.4552V26.2394C102.2 26.9806 102.246 27.5886 102.337 28.0633C102.429 28.5297 102.562 28.9378 102.737 29.2876V29.5H99.1016C98.9267 29.1335 98.7935 28.6755 98.7019 28.1258C98.6186 27.5678 98.5769 27.0098 98.5769 26.4517ZM99.0517 21.2672L99.0767 23.3036H97.0653C96.5906 23.3036 96.1783 23.3577 95.8285 23.466C95.4787 23.5742 95.1914 23.7283 94.9665 23.9282C94.7416 24.1198 94.5751 24.3446 94.4668 24.6028C94.3669 24.861 94.3169 25.1442 94.3169 25.4523C94.3169 25.7605 94.3877 26.0395 94.5293 26.2893C94.6709 26.5309 94.8749 26.7224 95.1414 26.864C95.4079 26.9973 95.7202 27.0639 96.0784 27.0639C96.6197 27.0639 97.0903 26.9556 97.4901 26.7391C97.8898 26.5225 98.198 26.256 98.4145 25.9395C98.6394 25.6231 98.756 25.3232 98.7643 25.0401L99.7138 26.5642C99.5805 26.9057 99.3973 27.2596 99.1641 27.6261C98.9392 27.9925 98.6519 28.3382 98.3021 28.663C97.9523 28.9795 97.5317 29.2418 97.0403 29.45C96.5489 29.6499 95.9659 29.7499 95.2913 29.7499C94.4335 29.7499 93.6548 29.5791 92.9552 29.2377C92.2639 28.8879 91.7142 28.409 91.3061 27.801C90.9063 27.1847 90.7065 26.4851 90.7065 25.7022C90.7065 24.9943 90.8397 24.3654 91.1062 23.8158C91.3727 23.2661 91.7642 22.8038 92.2806 22.4291C92.8053 22.0459 93.459 21.7586 94.2419 21.5671C95.0248 21.3672 95.9326 21.2672 96.9654 21.2672H99.0517ZM122.113 23.466H125.849C125.774 24.6903 125.437 25.7771 124.837 26.7266C124.246 27.676 123.417 28.4173 122.351 28.9503C121.293 29.4833 120.019 29.7499 118.528 29.7499C117.362 29.7499 116.317 29.55 115.392 29.1502C114.468 28.7421 113.677 28.1591 113.019 27.4012C112.369 26.6433 111.873 25.7272 111.532 24.6528C111.191 23.5784 111.02 22.3749 111.02 21.0424V19.7806C111.02 18.448 111.195 17.2445 111.545 16.1701C111.903 15.0874 112.411 14.1671 113.069 13.4092C113.735 12.6513 114.53 12.0683 115.455 11.6602C116.379 11.2521 117.412 11.0481 118.553 11.0481C120.069 11.0481 121.347 11.3229 122.388 11.8726C123.438 12.4223 124.25 13.1802 124.824 14.1463C125.407 15.1124 125.757 16.2118 125.874 17.4444H122.126C122.084 16.7115 121.939 16.091 121.689 15.583C121.439 15.0666 121.06 14.6793 120.552 14.4211C120.052 14.1546 119.386 14.0214 118.553 14.0214C117.928 14.0214 117.383 14.138 116.916 14.3712C116.45 14.6044 116.059 14.9583 115.742 15.4331C115.426 15.9078 115.188 16.5075 115.03 17.232C114.88 17.9483 114.805 18.7895 114.805 19.7556V21.0424C114.805 21.9835 114.876 22.8122 115.018 23.5284C115.159 24.2364 115.376 24.836 115.667 25.3274C115.967 25.8104 116.35 26.1769 116.816 26.4268C117.291 26.6683 117.862 26.7891 118.528 26.7891C119.311 26.7891 119.956 26.6641 120.464 26.4143C120.972 26.1644 121.36 25.7938 121.626 25.3024C121.901 24.811 122.063 24.1989 122.113 23.466ZM127.51 22.8788V22.6164C127.51 21.6253 127.652 20.7134 127.935 19.8805C128.218 19.0393 128.631 18.3106 129.172 17.6943C129.713 17.078 130.38 16.5991 131.171 16.2576C131.962 15.9078 132.87 15.7329 133.894 15.7329C134.919 15.7329 135.831 15.9078 136.63 16.2576C137.43 16.5991 138.1 17.078 138.641 17.6943C139.191 18.3106 139.608 19.0393 139.891 19.8805C140.174 20.7134 140.316 21.6253 140.316 22.6164V22.8788C140.316 23.8616 140.174 24.7735 139.891 25.6147C139.608 26.4476 139.191 27.1763 138.641 27.801C138.1 28.4173 137.434 28.8962 136.643 29.2377C135.851 29.5791 134.944 29.7499 133.919 29.7499C132.895 29.7499 131.983 29.5791 131.183 29.2377C130.392 28.8962 129.722 28.4173 129.172 27.801C128.631 27.1763 128.218 26.4476 127.935 25.6147C127.652 24.7735 127.51 23.8616 127.51 22.8788ZM131.108 22.6164V22.8788C131.108 23.4451 131.158 23.974 131.258 24.4654C131.358 24.9568 131.516 25.3899 131.733 25.7646C131.958 26.1311 132.249 26.4184 132.607 26.6266C132.966 26.8349 133.403 26.939 133.919 26.939C134.419 26.939 134.848 26.8349 135.206 26.6266C135.564 26.4184 135.851 26.1311 136.068 25.7646C136.284 25.3899 136.443 24.9568 136.543 24.4654C136.651 23.974 136.705 23.4451 136.705 22.8788V22.6164C136.705 22.0668 136.651 21.5504 136.543 21.0673C136.443 20.576 136.28 20.1429 136.055 19.7681C135.839 19.385 135.552 19.0851 135.193 18.8686C134.835 18.6521 134.402 18.5438 133.894 18.5438C133.386 18.5438 132.953 18.6521 132.595 18.8686C132.245 19.0851 131.958 19.385 131.733 19.7681C131.516 20.1429 131.358 20.576 131.258 21.0673C131.158 21.5504 131.108 22.0668 131.108 22.6164ZM146.325 15.9828V29.5H142.714V15.9828H146.325ZM142.489 12.4598C142.489 11.9351 142.672 11.502 143.039 11.1605C143.405 10.819 143.897 10.6483 144.513 10.6483C145.121 10.6483 145.608 10.819 145.975 11.1605C146.35 11.502 146.537 11.9351 146.537 12.4598C146.537 12.9845 146.35 13.4176 145.975 13.759C145.608 14.1005 145.121 14.2712 144.513 14.2712C143.897 14.2712 143.405 14.1005 143.039 13.759C142.672 13.4176 142.489 12.9845 142.489 12.4598ZM152.821 18.8686V29.5H149.223V15.9828H152.596L152.821 18.8686ZM152.296 22.2666H151.322C151.322 21.2672 151.451 20.3677 151.709 19.5682C151.967 18.7603 152.329 18.0732 152.796 17.5069C153.262 16.9322 153.816 16.495 154.457 16.1951C155.107 15.887 155.832 15.7329 156.631 15.7329C157.264 15.7329 157.843 15.8245 158.368 16.0077C158.892 16.191 159.342 16.4825 159.717 16.8822C160.1 17.282 160.391 17.8109 160.591 18.4688C160.8 19.1268 160.904 19.9305 160.904 20.8799V29.5H157.281V20.8675C157.281 20.2678 157.197 19.8014 157.031 19.4683C156.864 19.1351 156.619 18.9019 156.294 18.7687C155.977 18.6271 155.586 18.5563 155.12 18.5563C154.636 18.5563 154.216 18.6521 153.858 18.8436C153.508 19.0352 153.216 19.3017 152.983 19.6432C152.758 19.9763 152.588 20.3677 152.471 20.8175C152.354 21.2672 152.296 21.7503 152.296 22.2666ZM170.948 25.7646C170.948 25.5065 170.873 25.2733 170.723 25.065C170.573 24.8568 170.294 24.6653 169.886 24.4904C169.486 24.3071 168.907 24.1406 168.15 23.9907C167.467 23.8407 166.829 23.6534 166.238 23.4285C165.655 23.1953 165.147 22.9163 164.714 22.5915C164.289 22.2666 163.956 21.8835 163.715 21.4421C163.473 20.9924 163.352 20.4802 163.352 19.9055C163.352 19.3392 163.473 18.8061 163.715 18.3064C163.964 17.8067 164.318 17.3653 164.776 16.9822C165.243 16.5907 165.809 16.2867 166.475 16.0702C167.15 15.8453 167.908 15.7329 168.749 15.7329C169.924 15.7329 170.931 15.9203 171.772 16.2951C172.622 16.6699 173.272 17.1862 173.721 17.8442C174.179 18.4938 174.408 19.2351 174.408 20.0679H170.811C170.811 19.7181 170.736 19.4058 170.586 19.1309C170.444 18.8478 170.219 18.6271 169.911 18.4688C169.611 18.3023 169.22 18.219 168.737 18.219C168.337 18.219 167.991 18.2898 167.7 18.4313C167.408 18.5646 167.183 18.7478 167.025 18.981C166.875 19.2059 166.8 19.4558 166.8 19.7306C166.8 19.9388 166.842 20.1262 166.925 20.2928C167.017 20.451 167.163 20.5968 167.362 20.73C167.562 20.8633 167.821 20.9882 168.137 21.1048C168.462 21.2131 168.862 21.313 169.336 21.4046C170.311 21.6045 171.181 21.8669 171.947 22.1917C172.714 22.5082 173.322 22.9413 173.771 23.4909C174.221 24.0323 174.446 24.7444 174.446 25.6272C174.446 26.2269 174.313 26.7766 174.046 27.2763C173.78 27.776 173.397 28.2132 172.897 28.588C172.397 28.9545 171.797 29.2418 171.098 29.45C170.407 29.6499 169.628 29.7499 168.762 29.7499C167.504 29.7499 166.438 29.525 165.564 29.0752C164.697 28.6255 164.039 28.055 163.59 27.3637C163.148 26.6641 162.928 25.9479 162.928 25.215H166.338C166.355 25.7063 166.48 26.1019 166.713 26.4018C166.954 26.7016 167.258 26.9181 167.625 27.0514C168 27.1847 168.404 27.2513 168.837 27.2513C169.303 27.2513 169.69 27.1888 169.998 27.0639C170.307 26.9306 170.54 26.7557 170.698 26.5392C170.865 26.3143 170.948 26.0561 170.948 25.7646Z" fill="#E1E1E6"/>
</svg>
